<svg xmlns="http://www.w3.org/2000/svg" viewBox="0 0 800 500" width="100%" height="100%">
  <defs>
    <linearGradient id="bgGrad" x1="0%" y1="0%" x2="100%" y2="100%">
      <stop offset="0%" stop-color="#0b1320" />
      <stop offset="100%" stop-color="#070a12" />
    </linearGradient>
    <linearGradient id="coralGrad" x1="0%" y1="0%" x2="100%" y2="100%">
      <stop offset="0%" stop-color="#ff7a59" />
      <stop offset="100%" stop-color="#ea580c" />
    </linearGradient>
    <linearGradient id="winboxHeader" x1="0%" y1="0%" x2="0%" y2="100%">
      <stop offset="0%" stop-color="#243048" />
      <stop offset="100%" stop-color="#182032" />
    </linearGradient>
  </defs>

  <rect width="800" height="500" rx="16" fill="url(#bgGrad)" />

  <!-- WinBox / RouterOS Window Container -->
  <rect x="25" y="25" width="750" height="450" rx="10" fill="#121826" stroke="#2a3850" stroke-width="1.5" />
  
  <!-- Window Titlebar -->
  <rect x="25" y="25" width="750" height="38" rx="10" fill="url(#winboxHeader)" />
  <rect x="25" y="55" width="750" height="8" fill="url(#winboxHeader)" />
  <circle cx="45" cy="44" r="5" fill="#ef4444" />
  <circle cx="60" cy="44" r="5" fill="#eab308" />
  <circle cx="75" cy="44" r="5" fill="#22c55e" />
  <text x="100" y="49" font-family="'JetBrains Mono', monospace" font-size="13" font-weight="bold" fill="#f8fafc">RouterOS v7.14 (admin@MikroTik-RB750Gr3) [WinBox 64bit]</text>

  <!-- Left Sidebar Navigation -->
  <rect x="25" y="63" width="160" height="412" fill="#0d121c" stroke="#1f293d" stroke-width="1" />
  <g font-family="'JetBrains Mono', monospace" font-size="11" fill="#94a3b8">
    <rect x="30" y="75" width="150" height="26" rx="4" fill="#ff6b4a" opacity="0.15" />
    <text x="45" y="92" font-weight="bold" fill="#ff7a59">▶ IP / Firewall</text>
    <text x="45" y="122">  Interfaces</text>
    <text x="45" y="152">  Wireless</text>
    <text x="45" y="182">  Bridge</text>
    <text x="45" y="212">  PPP / PPPoE</text>
    <text x="45" y="242">  IP / Addresses</text>
    <text x="45" y="272">  IP / DHCP Server</text>
    <text x="45" y="302">  IP / Routes</text>
    <text x="45" y="332">  Queues (QoS)</text>
    <text x="45" y="362">  System / Logs</text>
  </g>

  <!-- Main Content: Firewall & NAT Rules Table -->
  <rect x="200" y="80" width="560" height="180" rx="6" fill="#151d2d" stroke="#223048" stroke-width="1" />
  <rect x="200" y="80" width="560" height="30" rx="6" fill="#1b253a" />
  <text x="215" y="100" font-family="'JetBrains Mono', monospace" font-size="11" font-weight="bold" fill="#e2e8f0">#  Flag  Chain    Src. Address      Dst. Address      Action       Packets / Bytes</text>
  
  <g font-family="'JetBrains Mono', monospace" font-size="10.5" fill="#cbd5e1">
    <text x="215" y="130" fill="#4ade80">0   D    srcnat   192.168.88.0/24   0.0.0.0/0         masquerade   2.8k (1.4 MiB)</text>
    <text x="215" y="155" fill="#38bdf8">1   X    forward  0.0.0.0/0         192.168.88.20     dst-nat:80   1.2k (840 KiB)</text>
    <text x="215" y="180" fill="#f87171">2        input    !192.168.88.0/24  0.0.0.0/0 (22)    drop         8.4k (420 KiB)</text>
    <text x="215" y="205" fill="#facc15">3        forward  0.0.0.0/0         0.0.0.0/0         fasttrack    94.5k (68 MiB)</text>
    <text x="215" y="230" fill="#94a3b8">4        input    0.0.0.0/0         0.0.0.0/0 (ICMP)  accept       340 (28 KiB)</text>
  </g>

  <!-- Bottom Panel: Bandwidth & Traffic Realtime Graph -->
  <rect x="200" y="280" width="560" height="175" rx="6" fill="#151d2d" stroke="#223048" stroke-width="1" />
  <text x="215" y="304" font-family="'JetBrains Mono', monospace" font-size="11" font-weight="bold" fill="#ff7a59">ether1-WAN Traffic Monitor [Tx / Rx Real-time]</text>
  <line x1="215" y1="315" x2="745" y2="315" stroke="#223048" stroke-width="1" />
  
  <!-- Graph Grid -->
  <g stroke="#1e293b" stroke-width="1">
    <line x1="230" y1="350" x2="735" y2="350" />
    <line x1="230" y1="385" x2="735" y2="385" />
    <line x1="230" y1="420" x2="735" y2="420" />
  </g>

  <!-- Rx Curve (Cyan) -->
  <path d="M230 420 Q280 390 330 360 T430 340 T530 370 T630 330 T735 345 L735 435 L230 435 Z" fill="#38bdf8" fill-opacity="0.15" />
  <path d="M230 420 Q280 390 330 360 T430 340 T530 370 T630 330 T735 345" fill="none" stroke="#38bdf8" stroke-width="2.5" />

  <!-- Tx Curve (Coral) -->
  <path d="M230 430 Q280 410 330 390 T430 380 T530 400 T630 360 T735 375 L735 435 L230 435 Z" fill="#ff7a59" fill-opacity="0.2" />
  <path d="M230 430 Q280 410 330 390 T430 380 T530 400 T630 360 T735 375" fill="none" stroke="#ff7a59" stroke-width="2.5" />

  <!-- Stats Legend -->
  <rect x="560" y="290" width="180" height="20" rx="4" fill="#0d121c" />
  <circle cx="575" cy="300" r="4" fill="#38bdf8" />
  <text x="585" y="304" font-family="'JetBrains Mono', monospace" font-size="9" fill="#e2e8f0">Rx: 94.2 Mbps</text>
  <circle cx="665" cy="300" r="4" fill="#ff7a59" />
  <text x="675" y="304" font-family="'JetBrains Mono', monospace" font-size="9" fill="#e2e8f0">Tx: 42.8 Mbps</text>
</svg>
